{"title":"Fahrenheit 451 2018 1080p BluRay x264 DTS [MW]","magnet":"magnet:?xt=urn:btih:eb63e4592cd8ca567c86a568514b57ee6e7f47b2&dn=Fahrenheit+451+2018+1080p+BluRay+x264+DTS+%5BMW%5D&tr=udp%3A%2F%2Ftracker.leechers-paradise.org%3A6969&tr=udp%3A%2F%2Fzer0day.ch%3A1337&tr=udp%3A%2F%2Fopen.demonii.com%3A1337&tr=udp%3A%2F%2Ftracker.coppersurfer.tk%3A6969&tr=udp%3A%2F%2Fexodus.desync.com%3A6969","uploader":"MFreaky","categoryP":"video","categoryS":"hd___movies","size":"2960555009","seeders":"28","leechers":"16","description":" <a href=\"https://pichub.site/image/E8Xbd\" rel=\"nofollow\" target=\"_NEW\">https://pichub.site/image/E8Xbd</a> <a href=\"\nhttps://pichub.site/image/E8sV9\" rel=\"nofollow\" target=\"_NEW\">\nhttps://pichub.site/image/E8sV9</a> <a href=\"\nhttps://pichub.site/image/E83Uu\" rel=\"nofollow\" target=\"_NEW\">\nhttps://pichub.site/image/E83Uu</a> <a href=\"\nhttps://pichub.site/image/E8Z9R\" rel=\"nofollow\" target=\"_NEW\">\nhttps://pichub.site/image/E8Z9R</a> <a href=\"\nhttps://pichub.site/image/E89Rs\" rel=\"nofollow\" target=\"_NEW\">\nhttps://pichub.site/image/E89Rs</a>\r\n\r\nIMDB <a href=\"\nhttps://www.imdb.com/title/tt0360556/\" rel=\"nofollow\" target=\"_NEW\">\nhttps://www.imdb.com/title/tt0360556/</a>\r\n\r\nVideo\r\nFormat                                   : AVC\r\nFormat/Info                              : Advanced Video Codec\r\nFormat profile                           : High@L4.1\r\nFormat settings                          : CABAC / 4 Ref Frames\r\nFormat settings, CABAC                   : Yes\r\nFormat settings, RefFrames               : 4 frames\r\nCodec ID                                 : V_MPEG4/ISO/AVC\r\nDuration                                 : 1 h 40 min\r\nBit rate                                 : 3 200 kb/s\r\nWidth                                    : 1 920 pixels\r\nHeight                                   : 1 080 pixels\r\nDisplay aspect ratio                     : 16:9\r\nFrame rate mode                          : Constant\r\nFrame rate                               : 23.976 (24000/1001) FPS\r\nColor space                              : YUV\r\nChroma subsampling                       : 4:2:0\r\nBit depth                                : 8 bits\r\nScan type                                : Progressive\r\nBits/(Pixel*Frame)                       : 0.064\r\nStream size                              : 2.22 GiB (81%)\r\nWriting library                          : x264 core 155 r2901 7d0ff22\r\n\r\nAudio\r\nFormat                                   : DTS\r\nFormat/Info                              : Digital Theater Systems\r\nCodec ID                                 : A_DTS\r\nDuration                                 : 1 h 40 min\r\nBit rate mode                            : Constant\r\nBit rate                                 : 756 kb/s\r\nChannel(s)                               : 6 channels\r\nChannel positions                        : Front: L C R, Side: L R, LFE\r\nSampling rate                            : 48.0 kHz\r\nFrame rate                               : 93.750 FPS (512 SPF)\r\nBit depth                                : 16 bits\r\nCompression mode                         : Lossy\r\nStream size                              : 543 MiB (19%)\r\nLanguage                                 : English","last_updated":"2018-09-20T12:25:21.522Z","parsed":{"xt":"urn:btih:eb63e4592cd8ca567c86a568514b57ee6e7f47b2","dn":"Fahrenheit 451 2018 1080p BluRay x264 DTS [MW]","tr":["udp://exodus.desync.com:6969","udp://open.demonii.com:1337","udp://tracker.coppersurfer.tk:6969","udp://tracker.leechers-paradise.org:6969","udp://zer0day.ch:1337"],"infoHash":"eb63e4592cd8ca567c86a568514b57ee6e7f47b2","infoHashBuffer":{"type":"Buffer","data":[235,99,228,89,44,216,202,86,124,134,165,104,81,75,87,238,110,127,71,178]},"name":"Fahrenheit 451 2018 1080p BluRay x264 DTS [MW]","announce":["udp://exodus.desync.com:6969","udp://open.demonii.com:1337","udp://tracker.coppersurfer.tk:6969","udp://tracker.leechers-paradise.org:6969","udp://zer0day.ch:1337"],"urlList":[]}}